<svg width="200" height="200" viewBox="0 0 200 200" fill="none" xmlns="http://www.w3.org/2000/svg">
<ellipse opacity="0.5" cx="99.5" cy="109" rx="80.5" ry="80" fill="#E6E6E6"/>
<rect x="44.4136" y="35.0688" width="111.607" height="147.897" rx="5" fill="#CCCCCC"/>
<rect x="44.4136" y="27.0342" width="111.607" height="147.897" rx="5" fill="white"/>
<path d="M156.021 80.3447V169.034C156.021 171.796 153.782 174.034 151.021 174.034H49.4135C46.6521 174.034 44.4135 171.796 44.4135 169.034V156.103" stroke="#3B3B3B" stroke-width="2" stroke-linecap="round" stroke-linejoin="round"/>
<path d="M44.4138 162.379V178C44.4138 180.762 46.6524 183 49.4138 183H123.333" stroke="#3B3B3B" stroke-width="2" stroke-linecap="round" stroke-linejoin="round"/>
<rect x="77.6089" y="101.414" width="19.7241" height="17.931" rx="5" fill="#CCCCCC"/>
<rect x="102.712" y="101.414" width="19.7241" height="17.931" rx="5" fill="#CCCCCC"/>
<rect x="51.6089" y="101.414" width="18.8276" height="17.931" rx="5" fill="#CCCCCC"/>
<rect x="77.6089" y="122.034" width="19.7241" height="17.931" rx="5" fill="#CCCCCC"/>
<rect x="77.6089" y="145.345" width="19.7241" height="17.931" rx="5" fill="#CCCCCC"/>
<rect x="51.6089" y="145.345" width="19.7241" height="17.931" rx="5" fill="#CCCCCC"/>
<rect x="102.712" y="122.034" width="19.7241" height="17.931" rx="5" fill="#CCCCCC"/>
<rect x="102.712" y="145.345" width="19.7241" height="17.931" rx="5" fill="#CCCCCC"/>
<rect x="51.6089" y="122.034" width="18.8276" height="17.931" rx="5" fill="#CCCCCC"/>
<rect x="77.6089" y="78.1035" width="19.7241" height="17.931" rx="5" fill="#CCCCCC"/>
<rect x="102.712" y="78.1035" width="19.7241" height="17.931" rx="5" fill="#CCCCCC"/>
<rect x="129.609" y="101.414" width="18.8276" height="17.931" rx="5" fill="#CCCCCC"/>
<rect x="129.609" y="122.034" width="18.8276" height="41.2414" rx="5" fill="#CCCCCC"/>
<rect x="129.609" y="120.241" width="18.8276" height="41.2414" rx="5" fill="#F2F2F2"/>
<rect x="129.609" y="78.1035" width="18.8276" height="17.931" rx="5" fill="#CCCCCC"/>
<rect x="51.6089" y="78.1035" width="18.8276" height="17.931" rx="5" fill="#CCCCCC"/>
<rect x="77.6089" y="99.6206" width="19.7241" height="17.931" rx="5" fill="#F2F2F2"/>
<rect x="102.712" y="99.6206" width="19.7241" height="17.931" rx="5" fill="#F2F2F2"/>
<rect x="51.6089" y="99.6206" width="18.8276" height="17.931" rx="5" fill="#F2F2F2"/>
<rect x="77.6089" y="120.241" width="19.7241" height="17.931" rx="5" fill="#F2F2F2"/>
<rect x="77.6089" y="143.552" width="19.7241" height="17.931" rx="5" fill="#F2F2F2"/>
<rect x="51.6089" y="143.552" width="19.7241" height="17.931" rx="5" fill="#F2F2F2"/>
<rect x="102.712" y="120.241" width="19.7241" height="17.931" rx="5" fill="#F2F2F2"/>
<rect x="102.712" y="143.552" width="19.7241" height="17.931" rx="5" fill="#F2F2F2"/>
<rect x="51.6089" y="120.241" width="18.8276" height="17.931" rx="5" fill="#F2F2F2"/>
<rect x="77.6089" y="76.3103" width="19.7241" height="17.931" rx="5" fill="#F2F2F2"/>
<rect x="102.712" y="76.3103" width="19.7241" height="17.931" rx="5" fill="#F2F2F2"/>
<rect x="129.609" y="99.6206" width="18.8276" height="17.931" rx="5" fill="#F2F2F2"/>
<rect x="129.609" y="76.3103" width="18.8276" height="17.931" rx="5" fill="#F2F2F2"/>
<rect x="51.6089" y="76.3103" width="18.8276" height="17.931" rx="5" fill="#F2F2F2"/>
<path d="M44.4365 32C44.4365 29.2386 46.6751 27 49.4365 27H150.609C153.37 27 155.609 29.2386 155.609 32V73.6207H44.4365V32Z" fill="#FFFF63"/>
<rect x="53.4019" y="35.9656" width="93.2414" height="28.6897" rx="5" fill="#212121"/>
<line x1="110.093" y1="43.1489" x2="110.093" y2="47.9522" stroke="#3B3B3B" stroke-width="2" stroke-linecap="round" stroke-linejoin="bevel"/>
<line x1="107.526" y1="41.4482" x2="102.723" y2="41.4482" stroke="#3B3B3B" stroke-width="2" stroke-linecap="round" stroke-linejoin="bevel"/>
<line x1="107.526" y1="49.9524" x2="102.723" y2="49.9524" stroke="#3B3B3B" stroke-width="2" stroke-linecap="round" stroke-linejoin="bevel"/>
<line x1="106.545" y1="47.3892" x2="103.149" y2="43.9928" stroke="#3B3B3B" stroke-width="2" stroke-linecap="round" stroke-linejoin="bevel"/>
<line x1="110.093" y1="51.6531" x2="110.093" y2="56.4563" stroke="#3B3B3B" stroke-width="2" stroke-linecap="round" stroke-linejoin="bevel"/>
<line x1="107.526" y1="58.4565" x2="102.723" y2="58.4565" stroke="#3B3B3B" stroke-width="2" stroke-linecap="round" stroke-linejoin="bevel"/>
<line x1="1" y1="-1" x2="5.80325" y2="-1" transform="matrix(0.707107 -0.707107 -0.707107 -0.707107 102.29 55.8933)" stroke="#3B3B3B" stroke-width="2" stroke-linecap="round" stroke-linejoin="bevel"/>
<line x1="115.763" y1="43.1489" x2="115.763" y2="47.9522" stroke="white" stroke-width="2" stroke-linecap="round" stroke-linejoin="bevel"/>
<line x1="124.833" y1="43.1489" x2="124.833" y2="47.9522" stroke="white" stroke-width="2" stroke-linecap="round" stroke-linejoin="bevel"/>
<line x1="101.022" y1="43.1489" x2="101.022" y2="47.9522" stroke="white" stroke-width="2" stroke-linecap="round" stroke-linejoin="bevel"/>
<line x1="1" y1="-1" x2="5.80325" y2="-1" transform="matrix(0.707107 -0.707107 -0.707107 -0.707107 102.29 47.3892)" stroke="white" stroke-width="2" stroke-linecap="round" stroke-linejoin="bevel"/>
<line x1="101.022" y1="51.6531" x2="101.022" y2="56.4563" stroke="white" stroke-width="2" stroke-linecap="round" stroke-linejoin="bevel"/>
<line x1="106.545" y1="55.8933" x2="103.149" y2="52.4969" stroke="white" stroke-width="2" stroke-linecap="round" stroke-linejoin="bevel"/>
<line x1="122.267" y1="41.4482" x2="117.463" y2="41.4482" stroke="white" stroke-width="2" stroke-linecap="round" stroke-linejoin="bevel"/>
<line x1="122.267" y1="49.9524" x2="117.463" y2="49.9524" stroke="white" stroke-width="2" stroke-linecap="round" stroke-linejoin="bevel"/>
<line x1="121.285" y1="47.3892" x2="117.889" y2="43.9928" stroke="#3B3B3B" stroke-width="2" stroke-linecap="round" stroke-linejoin="bevel"/>
<line x1="1" y1="-1" x2="5.80325" y2="-1" transform="matrix(0.707107 -0.707107 -0.707107 -0.707107 117.031 47.3892)" stroke="#3B3B3B" stroke-width="2" stroke-linecap="round" stroke-linejoin="bevel"/>
<line x1="115.763" y1="51.6531" x2="115.763" y2="56.4563" stroke="white" stroke-width="2" stroke-linecap="round" stroke-linejoin="bevel"/>
<line x1="124.833" y1="51.6531" x2="124.833" y2="56.4563" stroke="#3B3B3B" stroke-width="2" stroke-linecap="round" stroke-linejoin="bevel"/>
<line x1="122.267" y1="58.4565" x2="117.463" y2="58.4565" stroke="#3B3B3B" stroke-width="2" stroke-linecap="round" stroke-linejoin="bevel"/>
<line x1="121.285" y1="55.8933" x2="117.889" y2="52.4969" stroke="#3B3B3B" stroke-width="2" stroke-linecap="round" stroke-linejoin="bevel"/>
<line x1="1" y1="-1" x2="5.80325" y2="-1" transform="matrix(0.707107 -0.707107 -0.707107 -0.707107 117.031 55.8933)" stroke="#3B3B3B" stroke-width="2" stroke-linecap="round" stroke-linejoin="bevel"/>
<line x1="130.503" y1="43.1489" x2="130.503" y2="47.9522" stroke="white" stroke-width="2" stroke-linecap="round" stroke-linejoin="bevel"/>
<line x1="139.574" y1="43.1489" x2="139.574" y2="47.9522" stroke="#3B3B3B" stroke-width="2" stroke-linecap="round" stroke-linejoin="bevel"/>
<line x1="137.007" y1="41.4482" x2="132.204" y2="41.4482" stroke="#3B3B3B" stroke-width="2" stroke-linecap="round" stroke-linejoin="bevel"/>
<line x1="137.007" y1="49.9524" x2="132.204" y2="49.9524" stroke="#3B3B3B" stroke-width="2" stroke-linecap="round" stroke-linejoin="bevel"/>
<line x1="136.026" y1="47.3892" x2="132.63" y2="43.9928" stroke="#3B3B3B" stroke-width="2" stroke-linecap="round" stroke-linejoin="bevel"/>
<line x1="1" y1="-1" x2="5.80325" y2="-1" transform="matrix(0.707107 -0.707107 -0.707107 -0.707107 131.771 47.3892)" stroke="#3B3B3B" stroke-width="2" stroke-linecap="round" stroke-linejoin="bevel"/>
<line x1="130.503" y1="51.6531" x2="130.503" y2="56.4563" stroke="white" stroke-width="2" stroke-linecap="round" stroke-linejoin="bevel"/>
<line x1="139.574" y1="51.6531" x2="139.574" y2="56.4563" stroke="#3B3B3B" stroke-width="2" stroke-linecap="round" stroke-linejoin="bevel"/>
<line x1="137.007" y1="58.4565" x2="132.204" y2="58.4565" stroke="#3B3B3B" stroke-width="2" stroke-linecap="round" stroke-linejoin="bevel"/>
<line x1="136.026" y1="55.8933" x2="132.63" y2="52.4969" stroke="#3B3B3B" stroke-width="2" stroke-linecap="round" stroke-linejoin="bevel"/>
<line x1="1" y1="-1" x2="5.80325" y2="-1" transform="matrix(0.707107 -0.707107 -0.707107 -0.707107 131.771 55.8933)" stroke="#3B3B3B" stroke-width="2" stroke-linecap="round" stroke-linejoin="bevel"/>
</svg>
