<svg width="200" height="200" viewBox="0 0 200 200" fill="none" xmlns="http://www.w3.org/2000/svg">
<ellipse opacity="0.5" cx="98.5" cy="100" rx="80.5" ry="80" fill="#E6E6E6"/>
<rect x="15" y="32" width="168" height="128" rx="3" fill="#E6E6E6"/>
<path d="M0 160H200V166C200 167.105 199.105 168 198 168H2C0.895429 168 0 167.105 0 166V160Z" fill="#666677"/>
<rect x="20" y="41" width="158" height="111" rx="2" fill="white"/>
<rect x="27.5" y="47.5" width="69" height="65" rx="1.5" fill="white" stroke="#F9F3FF"/>
<rect x="27.5" y="119.5" width="143" height="29" rx="1.5" fill="white" stroke="#F9F3FF"/>
<rect x="101.5" y="47.5" width="69" height="65" rx="1.5" fill="white" stroke="#F9F3FF"/>
<line x1="114.5" y1="102.5" x2="114.5" y2="96.5" stroke="#3B3B3B" stroke-width="3" stroke-linecap="round" stroke-linejoin="round"/>
<line x1="124.5" y1="102.5" x2="124.5" y2="85.5" stroke="#3B3B3B" stroke-width="3" stroke-linecap="round" stroke-linejoin="round"/>
<line x1="135.5" y1="102.5" x2="135.5" y2="89.5" stroke="#3B3B3B" stroke-width="3" stroke-linecap="round" stroke-linejoin="round"/>
<line x1="144.5" y1="102.5" x2="144.5" y2="82.5" stroke="#3B3B3B" stroke-width="3" stroke-linecap="round" stroke-linejoin="round"/>
<line x1="154.5" y1="102.5" x2="154.5" y2="75.5" stroke="#3B3B3B" stroke-width="3" stroke-linecap="round" stroke-linejoin="round"/>
<rect x="108" y="51" width="18" height="3" rx="1" fill="#E6E6E6"/>
<rect x="35" y="51" width="30" height="3" rx="1" fill="#E6E6E6"/>
<rect x="37" y="126" width="22" height="3" rx="1" fill="#E6E6E6"/>
<rect x="37" y="133" width="17" height="2" rx="1" fill="#E6E6E6"/>
<rect x="37" y="140" width="23" height="1" rx="0.5" fill="#E6E6E6"/>
<rect x="66" y="126" width="11" height="3" rx="1" fill="#E6E6E6"/>
<rect x="66" y="133" width="11" height="2" rx="1" fill="#E6E6E6"/>
<rect x="66" y="140" width="11" height="1" rx="0.5" fill="#E6E6E6"/>
<rect x="83" y="126" width="27" height="3" rx="1" fill="#E6E6E6"/>
<rect x="83" y="133" width="31" height="2" rx="1" fill="#E6E6E6"/>
<rect x="83" y="140" width="25" height="1" rx="0.5" fill="#E6E6E6"/>
<ellipse cx="98.5" cy="36" rx="1.5" ry="2" fill="#CCCCCC"/>
<rect x="54.8003" y="92.0667" width="13.6" height="7.93333" fill="#9999AA"/>
<path d="M61.6005 85.2667C69.1116 85.2667 75.2005 79.1778 75.2005 71.6667V64.8667H48.0005V71.6667C48.0005 79.1778 54.0894 85.2667 61.6005 85.2667Z" fill="#CCCCCC"/>
<rect x="59.334" y="84.1333" width="4.53333" height="4.53333" fill="#CCCCCC"/>
<path d="M57.0674 90.6667C57.0674 89.5622 57.9628 88.6667 59.0674 88.6667H64.1341C65.2386 88.6667 66.134 89.5622 66.134 90.6667V92.0667H57.0674V90.6667Z" fill="#CCCCCC"/>
<path d="M74.2672 66H76.6006C77.7051 66 78.603 66.8967 78.4942 67.9959C78.0021 72.9662 75.7743 80.1667 71.2339 80.1667" stroke="#CCCCCC" stroke-width="2"/>
<path d="M48.9349 66H46.6016C45.497 66 44.5991 66.8967 44.7079 67.9959C45.2 72.9662 47.4278 80.1667 51.9683 80.1667" stroke="#CCCCCC" stroke-width="2"/>
<circle cx="62.1674" cy="74.5002" r="6.23333" fill="#FFFF63"/>
<path d="M59.3345 73.695L61.7385 76.2003L65.0011 72.8003" stroke="#666677" stroke-width="2"/>
<path d="M155 134.5C155 133.384 154.78 132.278 154.353 131.247C153.926 130.216 153.3 129.279 152.51 128.49C151.721 127.7 150.784 127.074 149.753 126.647C148.722 126.22 147.616 126 146.5 126V128.442C147.295 128.442 148.083 128.599 148.818 128.904C149.553 129.208 150.221 129.654 150.783 130.217C151.346 130.779 151.792 131.447 152.096 132.182C152.401 132.917 152.558 133.705 152.558 134.5H155Z" fill="#CCCCCC"/>
<path d="M146.5 126C144.819 126 143.175 126.499 141.778 127.433C140.38 128.366 139.29 129.694 138.647 131.247C138.004 132.8 137.835 134.509 138.163 136.158C138.491 137.807 139.301 139.322 140.49 140.51C141.678 141.699 143.193 142.509 144.842 142.837C146.491 143.165 148.2 142.996 149.753 142.353C151.306 141.71 152.633 140.62 153.567 139.222C154.501 137.825 155 136.181 155 134.5L152.558 134.5C152.558 135.698 152.202 136.869 151.537 137.865C150.871 138.862 149.925 139.638 148.818 140.096C147.711 140.555 146.493 140.675 145.318 140.441C144.143 140.207 143.064 139.63 142.217 138.783C141.37 137.936 140.793 136.857 140.559 135.682C140.325 134.507 140.445 133.289 140.904 132.182C141.362 131.075 142.138 130.129 143.135 129.463C144.131 128.798 145.302 128.442 146.5 128.442L146.5 126Z" fill="#9999AA"/>
</svg>
