<svg width="100" height="100" viewBox="0 0 100 100" fill="none" xmlns="http://www.w3.org/2000/svg">
<circle cx="50" cy="50" r="50" fill="#F9F9FF"/>
<path d="M26 18C26 17.4477 26.4477 17 27 17H64.1716C64.4368 17 64.6911 17.1054 64.8787 17.2929L78.7071 31.1213C78.8946 31.3089 79 31.5632 79 31.8284V82C79 82.5523 78.5523 83 78 83H27C26.4477 83 26 82.5523 26 82V18Z" stroke="#DDDDEE" stroke-width="2"/>
<path d="M66 32H79L64 17V30C64 31.1046 64.8954 32 66 32Z" stroke="#DDDDEE" stroke-width="2" stroke-linecap="round" stroke-linejoin="round"/>
<circle cx="25.5" cy="63.5" r="10.5" fill="#FF7F5B"/>
<path d="M22 62.5L25.5 59M25.5 59L29 62.5M25.5 59V69" stroke="white" stroke-width="2"/>
<path d="M44 40V67H49V62H60V67H65V40H62M44 40V36H62V40M44 40H62" stroke="#DDDDEE" stroke-width="2"/>
<line x1="39" y1="67" x2="65" y2="67" stroke="#DDDDEE" stroke-width="2"/>
<line x1="48" y1="56" x2="61" y2="56" stroke="#DDDDEE" stroke-width="2"/>
<line x1="48" y1="50" x2="61" y2="50" stroke="#DDDDEE" stroke-width="2"/>
<line x1="48" y1="45" x2="61" y2="45" stroke="#DDDDEE" stroke-width="2"/>
<rect x="39" y="42" width="5" height="25" stroke="#DDDDEE" stroke-width="2"/>
</svg>
