<svg width="207" height="200" viewBox="0 0 207 200" fill="none" xmlns="http://www.w3.org/2000/svg">
<ellipse opacity="0.5" cx="102.795" cy="102" rx="83.1274" ry="80" fill="#E6E6E6"/>
<path d="M159.074 66.1293C159.074 78.6674 159.075 165 159.075 165C159.075 157.5 153.469 153.285 142.847 161.142C132.225 169 117.252 178 101.762 177C75.4522 175.301 75.0448 163.033 59.0059 157.861C45.4844 153.5 45.4843 162.299 45.4843 162.299C45.4843 153.5 45.4843 77.1773 45.4843 66.1293C45.4843 35.6822 70.9122 11 102.279 11C133.646 11 159.074 35.6822 159.074 66.1293Z" fill="white"/>
<path fill-rule="evenodd" clip-rule="evenodd" d="M159.187 164.717C159.047 157.395 153.449 153.384 142.962 161.142C132.34 169 117.367 178 101.877 177C85.7023 175.956 79.3175 170.917 73.0718 165.988C69.1583 162.899 65.2994 159.853 59.121 157.861C46.3872 153.754 45.6453 161.319 45.602 162.214C45.5996 162.403 45.5984 162.5 45.5984 162.5C44.5657 170.5 50.5051 177.641 62.6369 176.5C72.9497 175.531 76.9327 178.662 81.2975 182.094C85.8043 185.637 90.7181 189.5 103.426 189.5C116.358 189.5 122.605 184.937 128.144 180.891C133.321 177.11 137.88 173.78 146.699 175.049C157.825 176.65 159.136 167.567 159.187 164.717Z" fill="#3B3B3B"/>
<path d="M147.715 142C147.715 138 141.519 151.667 138.421 159C141.002 154.5 146.962 155.572 148.747 152C150.177 149.14 147.715 144.224 147.715 142Z" fill="#F9F9F9"/>
<path d="M59.342 152.101C58.8906 147.035 56.7806 122.059 58.451 115.549C58.7183 114.507 59.5726 114.833 59.7738 115.89C60.787 121.213 63.8927 136.521 67.6858 145.5C71.841 155.336 78.4724 163.173 79.8292 164.722C79.9915 164.901 80.0764 165 80.0764 165C80.0764 165 79.9898 164.905 79.8292 164.722C78.2555 162.98 69.4127 153.633 60.3337 153.03C59.8187 152.996 59.3878 152.615 59.342 152.101Z" fill="#F9F9F9"/>
<path d="M149.78 37.25C139.854 21.4967 122.087 11 101.821 11C70.7067 11 45.4833 35.7422 45.4833 66.2632C45.4833 71.5691 45.4833 97.4634 45.4833 123" stroke="#3B3B3B" stroke-width="2" stroke-linecap="round" stroke-linejoin="round"/>
<rect x="80.593" y="56" width="11.359" height="20" rx="5.67951" fill="#3B3B3B"/>
<rect x="112.605" y="56" width="11.359" height="20" rx="5.67951" fill="#3B3B3B"/>
<rect x="91.9521" y="89" width="21.6854" height="2" rx="1" fill="#3B3B3B"/>
</svg>
