<?xml version="1.0" encoding="utf-8"?>
<!-- Generator: Adobe Illustrator 22.0.1, SVG Export Plug-In . SVG Version: 6.00 Build 0)  -->
<svg version="1.1" id="Layer_1" xmlns="http://www.w3.org/2000/svg" xmlns:xlink="http://www.w3.org/1999/xlink" x="0px" y="0px"
	 viewBox="0 0 138.9 33.2" style="enable-background:new 0 0 138.9 33.2;" xml:space="preserve">
<style type="text/css">
	.st0{fill:#CE2028;}
	.st1{fill:#502970;}
</style>
<path class="st0" d="M14.8,22c-0.6,0.6-1.6,0.8-2.2,0.9c-1.2,0.1-2.4-0.2-3.2-1.2c-0.6-0.8-1-1.8-1.6-2.6c-1-1.3-2.6-2.1-4.2-1.8
	c-3.2,0.6-4.7,4.3-2.9,7c2.6,3.7,8.5,3.1,11.5,0.5C13.2,24,14.1,23.1,14.8,22"/>
<path class="st0" d="M124.1,22c0.6,0.6,1.6,0.8,2.2,0.9c1.2,0.1,2.4-0.2,3.2-1.2c0.6-0.8,1-1.8,1.6-2.6c1-1.3,2.6-2.1,4.2-1.8
	c3.2,0.6,4.7,4.3,2.9,7c-2.6,3.7-8.5,3.1-11.5,0.5C125.7,24,124.8,23.1,124.1,22"/>
<path class="st1" d="M64.3,18.9c-0.1-0.4-0.2-0.9-0.2-1.3c0-0.6,0-1.5,0-2.4c0.1-2.8,0.6-7.9-3.2-7.9c-2.6,0-4.2,2.2-4.6,2.9
	c-0.1-2-1.6-3.5-4.1-3.5c-1.5,0-2.5,1.2-2.5,1.2s1.5,0.5,1.5,2.5c0,1.4,0,8.5,0,8.5c0.1,1.2,0.9,2.4,2.5,2.4s2.5-1.2,2.5-2.4v-6.2
	c0.2-1,0.8-2.1,1.7-2.1c1.1,0,1.2,1.2,1.2,1.2v6c0,0.2,0,0.4,0.1,0.6c0.1,0.3,0.1,0.6,0.3,0.9c0.6,1.2,1.9,2,3.7,2
	c1.5,0,2.5-1.2,2.5-1.2S64.7,20,64.3,18.9"/>
<path class="st1" d="M101.4,18.9c-0.1-0.4-0.2-0.9-0.2-1.3V2.7c0-1.5-1.2-2.6-2.6-2.6C97.2,0,96,1.2,96,2.6v13.2
	c0,1.2-0.1,2.4,0.5,3.5c0.6,1.2,2.1,2.2,3.8,2.2c1.5,0,2.5-1.2,2.5-1.2S101.8,20,101.4,18.9"/>
<path class="st1" d="M42.7,18.5L42.7,18.5L42.7,18.5L42.7,18.5L42.7,18.5c-1.4,0-2.1-1.6-2.1-4.1s0.9-4.1,2-4.1l0,0l0,0
	c1.2,0,2,1.6,2,4.1C44.7,16.9,44.1,18.5,42.7,18.5 M42.7,7.2c-3.9,0-7.1,3.2-7.1,7.1s3.2,7.1,7.1,7.1s7.1-3.2,7.1-7.1
	S46.6,7.2,42.7,7.2"/>
<path class="st1" d="M72.6,18L72.6,18L72.6,18L72.6,18L72.6,18c-1.4,0-2.1-1.4-2.1-3.6s0.9-3.6,2-3.6l0,0l0,0l0,0l0,0
	c1.2,0,2,1.4,2,3.6C74.6,16.7,73.9,18,72.6,18 M80.4,18.9c-0.1-0.4-0.2-0.9-0.2-1.3V2.7C80.2,1.2,79,0,77.6,0C76.1,0,75,1.2,75,2.6
	v7.1c-0.6-0.9-2-2.4-4.2-2.4c-6,0-6.4,10.8-2.3,13.4c1.2,0.8,2.9,0.9,4.3,0.6c0.9-0.2,2.4-1.1,2.6-2.2c0,0.1,0.1,0.2,0.1,0.2
	c0.6,1.2,2.1,2.2,3.8,2.2c1.5,0,2.5-1.2,2.5-1.2S80.8,20,80.4,18.9"/>
<path class="st1" d="M86.4,13.6c0.2-1.1,0.4-2.5,1.4-3.2c0.8-0.5,2,0.1,2,1.1c0,1.1-0.7,1.9-1.7,2.1C88.1,13.6,86.4,13.7,86.4,13.6
	 M94.1,17.1c0,0-0.8,1.1-3.8,1.1s-3.6-2.3-3.6-2.3c4.4,0,8-0.3,8-3.8s-4-4.7-6.4-4.7c-3.9,0-6.8,3.1-6.8,7.2c0,4.6,3.7,7,6.8,7
	C93.8,21.5,94.1,17.1,94.1,17.1"/>
<path class="st1" d="M107.4,13.6c0.2-1.1,0.4-2.5,1.4-3.2c0.8-0.5,2,0.1,2,1.1c0,1.1-0.7,1.9-1.7,2.1
	C109.1,13.6,107.4,13.7,107.4,13.6 M115.1,17.1c0,0-0.8,1.1-3.8,1.1s-3.6-2.3-3.6-2.3c4.4,0,8-0.3,8-3.8s-4-4.7-6.4-4.7
	c-3.9,0-6.8,3.1-6.8,7.2c0,4.6,3.7,7,6.8,7C114.9,21.5,115.1,17.1,115.1,17.1"/>
<path class="st1" d="M125,17.5h-3c0.2,0,2.4-1.9,3.2-2.5c1.9-1.6,5.4-4,4.4-7l0,0c-0.2-0.7-0.7-1.1-0.7-1.1s-0.2,0.6-0.9,0.9
	c-0.3,0.1-0.6,0.1-0.9,0.1c-0.2,0-8.4,0-8.4,0c-1.1,0-2,0.9-2,1.9c0,1.1,0.9,1.9,2,1.9h4.7c-2.2,1.2-4.8,2.7-6.2,4.9
	c-0.8,1.3-1.6,3.2-1.3,4.7c1.1-0.9,3.8-1.8,5.9-1.4c0.8,0.2,1.6,0.6,2.3,1c4,2.5,6.3-2.4,4.4-4.5C128.6,16.4,127.5,17.5,125,17.5"/>
<path class="st1" d="M35.9,20.5c-2.4-2.7-3.2-7.1-3.3-10c-0.1-2.5,0-6.9,2-8.2c-0.7-0.8-2-1.2-3-1.2c-2.3,0-3.3,1.5-4.1,2.6
	c-0.3,0.4-4,5.6-4,5.6s-3.2-4.9-3.6-5.5c-0.5-0.8-1.6-2.3-3.3-2.6c-0.8-0.1-2.8-0.2-3.8,1.3c1.9,1.5,1.8,5.3,1.4,7.9
	c-1.2,7.8-4.5,8.5-4.5,8.5c1.7,4.6,6.1,2.8,7.3-0.9c0.8-2.4,1.3-5.4,1.4-7.9l4.8,7.4l5.4-7.3c-0.9,13,3.6,16.7,7.5,16.7
	s5.2-3.6,5.2-3.6C39.1,23.1,37.3,22,35.9,20.5"/>
<path class="st1" d="M48.1,24.7c0,0.2,0.1,0.4,0.1,0.6c0,0.1,0,6.8,0,6.9c0,0.6,0.5,1,1.1,1.1c0.6,0,1.1-0.5,1.2-1.1
	c0-0.1,0-6.2,0-6.2c0-0.5,0-1-0.2-1.5c-0.3-0.5-0.9-0.9-1.6-0.9c-0.7,0-1.1,0.5-1.1,0.5S47.9,24.2,48.1,24.7"/>
<path class="st1" d="M119.4,32.1c0-0.2-0.1-0.4-0.1-0.6c0-0.1,0-6.8,0-6.9c0-0.6-0.5-1-1.1-1.1c-0.6,0-1.1,0.5-1.2,1.1
	c0,0.1,0,6.1,0,6.1c0,0.5,0,1,0.2,1.5c0.3,0.5,0.9,0.9,1.6,0.9s1.1-0.5,1.1-0.5S119.5,32.6,119.4,32.1"/>
<path class="st1" d="M78.7,27.1c-1.2,0-1.9,1-2.1,1.3l0,0v-0.6c0-0.6-0.5-1-1.1-1s-1.1,0.4-1.2,1c0,0.1,0,4.3,0,4.4
	c0,0.6,0.5,1,1.1,1.1c0.6,0,1.1-0.5,1.2-1.1c0,0,0-1.4,0-2.6l0,0c0.1-0.5,0.4-0.9,0.7-0.9c0.5,0,0.5,0.6,0.5,0.6v3
	c0,0.6,0.5,1,1.1,1.1c0.6,0,1.1-0.5,1.2-1.1v-1.6C80.1,29,80.3,27.1,78.7,27.1"/>
<path class="st1" d="M107.4,27.1c-1.2,0-1.9,1-2.1,1.3l0,0c0-0.3,0-0.6,0-0.6c0-0.6-0.5-1-1.1-1s-1.1,0.4-1.2,1c0,0.1,0,4.3,0,4.4
	c0,0.6,0.5,1,1.1,1.1c0.6,0,1.1-0.5,1.2-1.1c0,0,0-1.4,0-2.6l0,0c0.1-0.5,0.4-0.9,0.7-0.9c0.5,0,0.5,0.6,0.5,0.6v3
	c0,0.6,0.5,1,1.1,1.1c0.6,0,1.1-0.5,1.2-1.1v-1.6C108.9,29,109.1,27.1,107.4,27.1"/>
<path class="st1" d="M55.9,27.1c-1.2,0-1.9,1-2.1,1.3l0,0v-0.6c0-0.6-0.5-1-1.1-1s-1.1,0.4-1.2,1c0,0.1,0,4.3,0,4.4
	c0,0.6,0.5,1,1.1,1.1c0.6,0,1.1-0.5,1.2-1.1c0,0,0-1.4,0-2.6l0,0c0.1-0.5,0.4-0.9,0.7-0.9c0.5,0,0.5,0.6,0.5,0.6v3
	c0,0.6,0.5,1,1.1,1.1c0.6,0,1.1-0.5,1.2-1.1v-1.6C57.3,29,57.5,27.1,55.9,27.1"/>
<path class="st1" d="M99.3,31.8L99.3,31.8L99.3,31.8L99.3,31.8L99.3,31.8c-0.6,0-0.9-0.7-0.9-1.8c0-1.1,0.4-1.8,0.9-1.8l0,0l0,0
	c0.5,0,0.9,0.7,0.9,1.8C100.2,31.1,99.9,31.8,99.3,31.8 M99.3,26.8c-1.8,0-3.2,1.4-3.2,3.2c0,1.8,1.4,3.2,3.2,3.2
	c1.8,0,3.2-1.4,3.2-3.2C102.5,28.2,101,26.8,99.3,26.8"/>
<path class="st1" d="M83.9,31.6L83.9,31.6L83.9,31.6L83.9,31.6C83.3,31.6,83,31,83,30s0.4-1.6,0.9-1.6l0,0l0,0
	c0.5,0,0.9,0.6,0.9,1.6S84.5,31.6,83.9,31.6 M87.3,27.7c0-0.6-0.6-1.1-1.1-1.1c-0.6,0-1.2,0.5-1.2,1.1c0,0,0,0.1,0,0.2
	c-0.3-0.4-0.9-1.1-1.9-1.1c-2.7,0-2.9,4.8-1,6c0.5,0.3,1.3,0.4,1.9,0.3c0.3-0.1,0.8-0.4,1.1-0.7c0.1,0.5,0.6,0.8,1.1,0.9
	c0.6,0,1.2-0.5,1.2-1.1C87.3,32,87.3,27.8,87.3,27.7"/>
<path class="st1" d="M112.6,31.6L112.6,31.6L112.6,31.6L112.6,31.6c-0.6,0-0.9-0.6-0.9-1.6s0.4-1.6,0.9-1.6l0,0l0,0
	c0.5,0,0.9,0.6,0.9,1.6S113.2,31.6,112.6,31.6 M116,27.7c0-0.6-0.6-1.1-1.1-1.1c-0.6,0-1.2,0.5-1.2,1.1c0,0,0,0.1,0,0.2
	c-0.3-0.4-0.9-1.1-1.9-1.1c-2.7,0-2.9,4.8-1,6c0.5,0.3,1.3,0.4,1.9,0.3c0.3-0.1,0.8-0.4,1.1-0.7c0.1,0.5,0.6,0.8,1.1,0.9
	c0.6,0,1.2-0.5,1.2-1.1C116,32,116,27.8,116,27.7"/>
<path class="st1" d="M95.4,28.3c0-0.6-0.5-1-1-1h-0.1c-0.5,0-1.1,0.4-1.1,1v3.9c0,0.6,0.5,1,1,1h0.1c0.5,0,1.1-0.4,1.1-1V28.3"/>
<path class="st1" d="M95.4,25.5c0,0.6-0.5,1.1-1.1,1.1s-1.1-0.5-1.1-1.1s0.5-1.1,1.1-1.1S95.4,24.9,95.4,25.5"/>
<path class="st1" d="M72.6,27c-0.7,0-1,0.5-1.5,1.2v-0.3c0-0.6-0.5-1-1.1-1.1c-0.6,0-1.1,0.5-1.2,1.1v1.6v2.7c0,0.6,0.5,1,1.1,1.1
	c0.6,0,1.1-0.5,1.2-1l0,0v-2.7c0-0.4,0.2-0.9,0.5-0.9c0.5,0,0,1.1,1,1.1C74.2,29.7,74.4,26.9,72.6,27"/>
<path class="st1" d="M64.6,29.6c0.1-0.5,0.2-1.1,0.6-1.4c0.4-0.2,0.9,0,0.9,0.5s-0.3,0.8-0.8,0.9C65.3,29.6,64.6,29.7,64.6,29.6
	 M68,31.2c0,0-0.3,0.5-1.7,0.5c-1.3,0-1.6-1-1.6-1c2,0,3.6-0.1,3.6-1.7s-1.8-2.1-2.9-2.1c-1.8,0-3,1.4-3,3.2c0,2.1,1.7,3.1,3.1,3.1
	C67.9,33.2,68,31.2,68,31.2"/>
<path class="st1" d="M62.3,32c0,0-0.6,1.2-1.7,1.2c-0.9,0-2-0.8-2-1.9c0,0,0-1.6,0-3h-0.3c-0.2,0-0.4-0.1-0.4-0.5s0.3-0.5,0.5-0.5
	h0.3c0-0.5,0-0.8,0-0.8c0-0.6,0.6-1.1,1.2-1.1c0.5,0,1.1,0.5,1.1,1.1l0,0v0.8h1c0.1,0,0.4,0.1,0.4,0.5s-0.3,0.5-0.5,0.5H61v2.5
	C60.8,31.6,61.5,32,62.3,32"/>
<path class="st1" d="M92.3,32c0,0-0.6,1.2-1.7,1.2c-0.9,0-2-0.8-2-1.9c0,0,0-1.6,0-3h-0.3c-0.2,0-0.4-0.1-0.4-0.5s0.3-0.5,0.5-0.5
	h0.3c0-0.5,0-0.8,0-0.8c0-0.6,0.6-1.1,1.2-1.1c0.5,0,1.1,0.5,1.1,1.1l0,0v0.8h0.9c0.1,0,0.4,0.1,0.4,0.5s-0.3,0.5-0.5,0.5h-0.9v2.5
	C90.9,31.6,91.6,32,92.3,32"/>
<path class="st1" d="M113.3,5.5h-7.7c-0.9,0-1.7-0.7-1.7-1.6v0c0-0.9,0.7-1.6,1.7-1.6h7.7c0.9,0,1.7,0.7,1.7,1.6v0
	C114.9,4.8,114.2,5.5,113.3,5.5z"/>
</svg>
