<?xml version="1.0" encoding="utf-8"?>
<!-- Generator: Adobe Illustrator 24.0.3, SVG Export Plug-In . SVG Version: 6.00 Build 0)  -->
<svg version="1.1" id="logos" xmlns="http://www.w3.org/2000/svg" xmlns:xlink="http://www.w3.org/1999/xlink" x="0px" y="0px"
	 viewBox="0 0 400 480" style="enable-background:new 0 0 400 480;" xml:space="preserve">
<style type="text/css">
	.st0{fill:#121212;}
	.st1{fill:#051EF2;}
	.st2{fill:#FF4F37;}
	.st3{fill:#00FF00;}
	.st4{fill:#FFFF5F;}
	.st5{fill:#FFFF00;}
	.st6{fill:#FFFFFF;}
</style>
<g>
	<path class="st4" d="M275.96,54.95L300,0h-10l-22.6,51.65C246.34,44.12,223.65,40,200,40C89.54,40,0,129.54,0,240
		c0,67.11,33.06,126.5,83.78,162.78L50,480h10l31.49-71.98C122.75,428.25,160,440,200,440c110.46,0,200-89.54,200-200
		C400,156.44,348.74,84.85,275.96,54.95z M300,190v-20h20v20H300z M320,200v187.3c-6.34,5.17-13.02,9.94-20,14.27V200H320z M330,170
		h46.69c2.58,6.5,4.79,13.17,6.65,20H330V170z M23.31,170H70v20H40v10h30v20H40v10h30v20H50H40v92.51C21.01,312.94,10,277.75,10,240
		C10,215.28,14.72,191.66,23.31,170z M100,230c11.05,0,20-8.95,20-20s-8.95-20-20-20H80v-20h20c22.09,0,40,17.91,40,40
		s-17.91,40-40,40H80v-20H100z M80,220v-20h20c5.52,0,10,4.48,10,10s-4.48,10-10,10H80z M50,356.62V260h20v118.55
		C62.78,371.77,56.09,364.44,50,356.62z M80,387.3V260h20c27.61,0,50-22.39,50-50s-22.39-50-50-50H80H70H27.63
		C57.83,95.04,123.65,50,200,50c22.23,0,43.56,3.83,63.38,10.84L220,160l-10,22.86L200,160h-10l-70,160l-32.11,73.4
		C85.21,391.43,82.57,389.4,80,387.3z M180.62,250h-20L195,171.43l10,22.86L180.62,250z M210,205.71L229.38,250h-38.75L210,205.71z
		 M95.56,398.73L130,320l26.25-60h20L150,320h10l26.25-60h47.5L260,320h10l-55-125.71L230,160l41.95-95.89
		c44.35,18.16,80.29,52.6,100.42,95.89H330h-10h-20h-10h-32.5l-4.38,10H290v20h-45.62L240,200h50v207.37
		C263.21,421.8,232.56,430,200,430C161.42,430,125.53,418.49,95.56,398.73z M330,378.55V200h55.77c2.76,12.9,4.23,26.28,4.23,40
		C390,294.64,366.93,343.89,330,378.55z"/>
</g>
</svg>
