<svg width="20" height="20" viewBox="0 0 20 20" fill="none" xmlns="http://www.w3.org/2000/svg">
<ellipse cx="10.1838" cy="7.3451" rx="2.29412" ry="2.3451" stroke="#9999AA" stroke-width="2"/>
<path d="M13.8898 13.6989C13.8898 13.6989 12.2306 14.9999 10.1839 14.9999C8.13721 14.9999 6.47803 13.6989 6.47803 13.6989C6.47803 11.0301 8.13721 9.76855 10.1839 9.76855C12.2306 9.76855 13.8898 11.0301 13.8898 13.6989Z" stroke="#9999AA" stroke-width="2"/>
<ellipse cx="16.2611" cy="6.94183" rx="1.69565" ry="1.73333" stroke="#9999AA" stroke-width="1.79"/>
<path d="M16.2612 12.5996C17.774 12.5996 19.0004 11.638 19.0004 11.638C19.0004 9.66536 17.774 8.73291 16.2612 8.73291" stroke="#9999AA" stroke-width="2" stroke-linecap="round"/>
<ellipse cx="3.73911" cy="6.94183" rx="1.69565" ry="1.73333" stroke="#9999AA" stroke-width="1.79"/>
<path d="M3.73913 12.5996C2.22635 12.5996 1 11.638 1 11.638C1 9.66536 2.22635 8.73291 3.73913 8.73291" stroke="#9999AA" stroke-width="2" stroke-linecap="round"/>
</svg>
