<svg width="20" height="20" viewBox="0 0 20 20" fill="none" xmlns="http://www.w3.org/2000/svg">
<circle cx="10.1766" cy="5.82353" r="2.82353" stroke="#9999AA" stroke-width="2"/>
<path d="M5.0222 14.3666C5.01977 14.3651 5.01735 14.3636 5.01493 14.362C5.11379 12.6881 5.69466 11.5284 6.49653 10.7693C7.38923 9.92414 8.66683 9.4707 10.1765 9.4707C11.6861 9.4707 12.9637 9.92414 13.8564 10.7693C14.6583 11.5284 15.2392 12.6881 15.338 14.362C15.3356 14.3636 15.3332 14.3651 15.3307 14.3666C15.0464 14.5475 14.6304 14.7916 14.1152 15.036C13.0757 15.5293 11.6824 16.0001 10.1765 16.0001C8.67051 16.0001 7.27725 15.5293 6.2377 15.036C5.72251 14.7916 5.30651 14.5475 5.0222 14.3666Z" stroke="#9999AA" stroke-width="2"/>
</svg>
